<?xml version="1.0" encoding="utf-8"?>
<!-- Generator: Adobe Illustrator 26.0.3, SVG Export Plug-In . SVG Version: 6.00 Build 0)  -->
<svg version="1.1" id="图层_1" xmlns="http://www.w3.org/2000/svg" xmlns:xlink="http://www.w3.org/1999/xlink" x="0px" y="0px"
	 viewBox="0 0 314.89 50.33" style="enable-background:new 0 0 314.89 50.33;" xml:space="preserve">
<style type="text/css">
	.st0{fill-rule:evenodd;clip-rule:evenodd;fill:#333333;}
</style>
<path class="st0" d="M170.61,0.29l16.73,0.01c0.2,0,0.3,0.24,0.17,0.38l-47.47,49.47c-0.04,0.04-0.1,0.07-0.17,0.07l-17.07,0.07
	c-0.2,0-0.31-0.24-0.17-0.38l47.81-49.55C170.48,0.32,170.54,0.29,170.61,0.29z"/>
<path class="st0" d="M205.9,10.02h29.56c0.8,0,1.45,0.67,1.45,1.49v27.64c0,0.82-0.65,1.49-1.45,1.49H205.9
	c-0.8,0-1.45-0.67-1.45-1.49V11.51C204.45,10.69,205.1,10.02,205.9,10.02L205.9,10.02z M194.18,0.6v49.46
	c0,0.15,0.12,0.27,0.27,0.27h52.46c0.15,0,0.27-0.12,0.27-0.27V0.6c0-0.15-0.12-0.27-0.27-0.27h-52.46
	C194.3,0.33,194.18,0.45,194.18,0.6z"/>
<path class="st0" d="M116.24,49.96v0.29H71.9h-5.65v-0.04v-7.05V28.79V21.7V7.33V0.49c0-0.13,0.11-0.24,0.24-0.24h10.56h39.2v0.13
	v0.2h0V10c0,0.13-0.11,0.24-0.24,0.24H77.28c-0.13,0-0.24,0.11-0.24,0.24v9.73c0,0.13,0.11,0.24,0.24,0.24h38.73
	c0.13,0,0.24,0.11,0.24,0.24v9.18c0,0.13-0.11,0.24-0.24,0.24H77.28c-0.13,0-0.24,0.11-0.24,0.24v9.73c0,0.13,0.11,0.24,0.24,0.24
	h38.73c0.13,0,0.24,0.11,0.24,0.24L116.24,49.96L116.24,49.96z"/>
<path class="st0" d="M139.45,0.3l-16.86,0c-0.2,0-0.3,0.24-0.16,0.38l21.26,22.14l0.1-0.21l8.38-8.83c0.08-0.09,0.08-0.22,0-0.31
	L139.45,0.3L139.45,0.3z M157.53,37.26l12.38,12.91c0.04,0.04,0.1,0.07,0.16,0.07l17.06,0.07c0.2,0,0.3-0.24,0.17-0.38l-21-21.78
	c-0.09-0.09-0.24-0.09-0.33,0l-8.44,8.8C157.45,37.03,157.45,37.17,157.53,37.26z"/>
<path class="st0" d="M267.2,30.52c-0.19,0.19-0.51,0.06-0.51-0.21l0-29.98l-0.29,0l-11.21,0c-0.17,0-0.3,0.13-0.3,0.3v47.02l0,0
	v2.36c0,0.16,0.13,0.3,0.3,0.3l10.42-0.04c0.08,0,0.16-0.03,0.21-0.09l15.22-15.33c0.12-0.12,0.31-0.12,0.43,0l15.22,15.33
	c0.06,0.06,0.13,0.09,0.21,0.09l17.46,0.07c0.27,0,0.4-0.32,0.21-0.51l-24.06-24.11c-0.12-0.12-0.12-0.3,0-0.42L314.8,0.84
	c0.19-0.19,0.05-0.51-0.21-0.51l-17.14,0.01c-0.08,0-0.16,0.03-0.21,0.09L267.2,30.52z"/>
<path class="st0" d="M12.31,30.52c-0.19,0.19-0.51,0.06-0.51-0.21l0-29.98l-0.29,0l-11.21,0C0.13,0.33,0,0.46,0,0.63v47.02l0,0v2.36
	c0,0.16,0.13,0.3,0.3,0.3l10.42-0.04c0.08,0,0.16-0.03,0.21-0.09l15.22-15.33c0.12-0.12,0.31-0.12,0.43,0L41.8,50.18
	c0.06,0.06,0.13,0.09,0.21,0.09l17.46,0.07c0.27,0,0.4-0.32,0.21-0.51L35.63,25.72c-0.12-0.12-0.12-0.3,0-0.42L59.91,0.84
	c0.19-0.19,0.05-0.51-0.21-0.51L42.56,0.34c-0.08,0-0.16,0.03-0.21,0.09L12.31,30.52z"/>
</svg>
