<?xml version="1.0" encoding="UTF-8"?>
<!DOCTYPE svg PUBLIC "-//W3C//DTD SVG 1.1//EN" "http://www.w3.org/Graphics/SVG/1.1/DTD/svg11.dtd">
<svg xmlns="http://www.w3.org/2000/svg" version="1.1" width="709px" height="709px" style="shape-rendering:geometricPrecision; text-rendering:geometricPrecision; image-rendering:optimizeQuality; fill-rule:evenodd; clip-rule:evenodd" xmlns:xlink="http://www.w3.org/1999/xlink">
<g><path style="opacity:1" fill="#333333" d="M 283.5,-0.5 C 330.167,-0.5 376.833,-0.5 423.5,-0.5C 423.5,47.5 423.5,95.5 423.5,143.5C 376.833,143.5 330.167,143.5 283.5,143.5C 283.5,95.5 283.5,47.5 283.5,-0.5 Z"/></g>
<g><path style="opacity:1" fill="#333333" d="M 153.5,55.5 C 188.096,88.429 222.096,122.096 255.5,156.5C 222.833,189.833 189.833,222.833 156.5,255.5C 122.5,222.167 88.8333,188.5 55.5,154.5C 88.1878,121.479 120.854,88.4791 153.5,55.5 Z"/></g>
<g><path style="opacity:1" fill="#323333" d="M 551.5,55.5 C 585.43,87.7623 618.763,120.762 651.5,154.5C 618.167,188.5 584.5,222.167 550.5,255.5C 517.107,223.441 484.774,190.441 453.5,156.5C 461.148,147.684 468.982,139.017 477,130.5C 502.035,105.632 526.868,80.632 551.5,55.5 Z"/></g>
<g><path style="opacity:1" fill="#333333" d="M -0.5,283.5 C 47.5,283.5 95.5,283.5 143.5,283.5C 143.5,330.167 143.5,376.833 143.5,423.5C 95.5,423.5 47.5,423.5 -0.5,423.5C -0.5,376.833 -0.5,330.167 -0.5,283.5 Z"/></g>
<g><path style="opacity:1" fill="#333333" d="M 708.5,283.5 C 708.5,330.167 708.5,376.833 708.5,423.5C 660.167,423.5 611.833,423.5 563.5,423.5C 563.5,376.833 563.5,330.167 563.5,283.5C 611.833,283.5 660.167,283.5 708.5,283.5 Z"/></g>
<g><path style="opacity:1" fill="#333333" d="M 155.5,451.5 C 189.43,483.762 222.763,516.762 255.5,550.5C 222.167,584.5 188.5,618.167 154.5,651.5C 121.167,618.833 88.1667,585.833 55.5,552.5C 88.8544,518.812 122.188,485.146 155.5,451.5 Z"/></g>
<g><path style="opacity:1" fill="#333333" d="M 549.5,451.5 C 584.096,484.429 618.096,518.096 651.5,552.5C 618.833,585.833 585.833,618.833 552.5,651.5C 518.44,618.775 485.44,585.108 453.5,550.5C 458.146,544.686 462.979,539.02 468,533.5C 495.368,506.299 522.535,478.965 549.5,451.5 Z"/></g>
<g><path style="opacity:1" fill="#333333" d="M 423.5,708.5 C 376.833,708.5 330.167,708.5 283.5,708.5C 283.5,660.167 283.5,611.833 283.5,563.5C 330.167,563.5 376.833,563.5 423.5,563.5C 423.5,611.833 423.5,660.167 423.5,708.5 Z"/></g>
</svg>
